<svg xmlns:xlink="http://www.w3.org/1999/xlink" xmlns="http://www.w3.org/2000/svg" id="phone--filled" width="24" height="24" viewBox="0 0 24 24">
  <path id="Path_6565" data-name="Path 6565" d="M15.994,16.86l1.68-1.68a1.642,1.642,0,0,1,1.755-.36l2.048.818a1.635,1.635,0,0,1,1.02,1.5v3.75a1.627,1.627,0,0,1-1.71,1.612C6.439,21.607,3.544,9.457,3,4.807A1.627,1.627,0,0,1,4.624,3H8.247a1.62,1.62,0,0,1,1.5,1.02l.818,2.047a1.62,1.62,0,0,1-.353,1.755L8.532,9.5S9.5,16.05,15.994,16.86Z" transform="translate(-0.747 -0.75)" fill="#2c75ff"/>
  <rect id="_Transparent_Rectangle_" data-name="&lt;Transparent Rectangle&gt;" width="24" height="24" fill="none"/>
</svg>