<svg xmlns:xlink="http://www.w3.org/1999/xlink" xmlns="http://www.w3.org/2000/svg" width="120.57" height="35.529" viewBox="0 0 120.57 35.529">
  <g id="logo-nav_2_" data-name="logo-nav (2)" transform="translate(-2.61 -4.13)">
    <g id="Path">
      <path id="Path_18892" data-name="Path 18892" d="M39.15,14H36.61l2.28-7.57s.18-.72-.37-.74-3,0-3,0-.38,0-.62.83-2.5,11.31-2.5,11.31-.23.78.5.78h2s.46-.05.42.21-3,10.29-3,10.29L39.7,14.52S39.85,14,39.15,14Z" fill="#002e89" fill-rule="evenodd"/>
    </g>
    <g id="Path-2" data-name="Path">
      <path id="Path_18893" data-name="Path 18893" d="M44.93,11.23a8.45,8.45,0,0,0-1.9-2,7.3,7.3,0,0,1,.9,1c2.72,3.76,1.33,9.41-3.09,12.64s-10.22,2.8-12.94-1S26.56,12.51,31,9.29c.24-.17.48-.34.72-.49-.28.15-.56.32-.84.49-5,3.16-6.72,9.14-3.92,13.35s9.11,5.1,14.07,1.95S47.74,15.45,44.93,11.23Z" fill="#002e89" fill-rule="evenodd"/>
    </g>
    <g id="Path-3" data-name="Path">
      <path id="Path_18894" data-name="Path 18894" d="M15.38,19a4.07,4.07,0,0,0-1.07-1.32,4.78,4.78,0,0,0-1.48-.85,6.77,6.77,0,0,0-1.66-.47l-2.64-.6c-.33-.08-.7-.18-1.1-.31a6.22,6.22,0,0,1-1.1-.53,3.41,3.41,0,0,1-.84-.76A2,2,0,0,1,5.17,13a2.4,2.4,0,0,1,.35-1.32,2.48,2.48,0,0,1,.91-.85,3.75,3.75,0,0,1,1.22-.46A5.87,5.87,0,0,1,9,10.18a6,6,0,0,1,1.61.22,3.55,3.55,0,0,1,1.31.63,3.13,3.13,0,0,1,.94,1.13,3.67,3.67,0,0,1,.38,1.57h2a6.12,6.12,0,0,0-.53-2.29A4.81,4.81,0,0,0,13.4,9.81a5.2,5.2,0,0,0-1.85-1,7.78,7.78,0,0,0-2.27-.32,9.49,9.49,0,0,0-2.16.25,6.71,6.71,0,0,0-1.95.79A4.41,4.41,0,0,0,3.73,11a4,4,0,0,0-.54,2.1,4.06,4.06,0,0,0,.35,1.76A3.8,3.8,0,0,0,4.48,16a7.42,7.42,0,0,0,1.45.82,17,17,0,0,0,1.78.56l2.55.56c.44.11.86.24,1.29.38a4.73,4.73,0,0,1,1.15.56,2.33,2.33,0,0,1,.8.82,2.19,2.19,0,0,1,.3,1.19,2.34,2.34,0,0,1-.43,1.44,3.39,3.39,0,0,1-1.07.95,4.69,4.69,0,0,1-1.44.53A7,7,0,0,1,9.38,24a5.44,5.44,0,0,1-3.33-1,3.93,3.93,0,0,1-1.44-3h-2a5.82,5.82,0,0,0,2,4.34,7.49,7.49,0,0,0,4.64,1.34,10.66,10.66,0,0,0,2.3-.25,6.78,6.78,0,0,0,2.07-.81,5.16,5.16,0,0,0,1.54-1.51,4.12,4.12,0,0,0,.6-2.26A4,4,0,0,0,15.38,19Z" fill="#002e89" fill-rule="evenodd"/>
    </g>
    <g id="Path-4" data-name="Path">
      <path id="Path_18895" data-name="Path 18895" d="M24.48,10.65V9h-3.3V4.13h-2V9h-2.8v1.65h2.83V21.74A3.85,3.85,0,0,0,20,24.6a4,4,0,0,0,2.76.75h1.76V23.62a16.15,16.15,0,0,1-1.7.1,1.444,1.444,0,0,1-1.35-.59,3.92,3.92,0,0,1-.25-1.55V10.65Z" fill="#002e89" fill-rule="evenodd"/>
    </g>
    <g id="Path-5" data-name="Path">
      <path id="Path_18896" data-name="Path 18896" d="M54.07,9.75a6.24,6.24,0,0,0-2.32,3h-.06V9H49.86V25.19h2V16.56a6.24,6.24,0,0,1,.44-2.36,5.13,5.13,0,0,1,3.15-3.07,5.83,5.83,0,0,1,2.44-.38v-2a6.24,6.24,0,0,0-3.82,1Z" fill="#002e89" fill-rule="evenodd"/>
    </g>
    <g id="Path-6" data-name="Path">
      <path id="Path_18897" data-name="Path 18897" d="M75.86,8.52a6,6,0,0,0-3,.79,4.89,4.89,0,0,0-2.14,2.38A3.79,3.79,0,0,0,69,9.31a5.36,5.36,0,0,0-2.89-.79,5.87,5.87,0,0,0-3.26.85,6.18,6.18,0,0,0-2,2.35h-.1V9H58.84V25.19h2v-9a9.12,9.12,0,0,1,.28-2.35A5.56,5.56,0,0,1,62,11.91a4.1,4.1,0,0,1,1.51-1.26,5,5,0,0,1,2.19-.47,3.69,3.69,0,0,1,1.61.32,2.47,2.47,0,0,1,1,.88,3.1,3.1,0,0,1,.57,1.29A5.83,5.83,0,0,1,69,14.2v11h2V16a11.68,11.68,0,0,1,.19-2.17A5.72,5.72,0,0,1,71.94,12a3.49,3.49,0,0,1,1.35-1.29,4.07,4.07,0,0,1,2.13-.51,3.61,3.61,0,0,1,3,1.07,4.72,4.72,0,0,1,.85,3.05V25.19h2v-11Q81.23,8.52,75.86,8.52Z" fill="#002e89" fill-rule="evenodd"/>
    </g>
    <g id="Path-7" data-name="Path">
      <path id="Path_18898" data-name="Path 18898" d="M90,8l-.43-.09-.7-.15a6.49,6.49,0,0,0-1.46,0,2.28,2.28,0,0,0-.89.29,1.75,1.75,0,0,0-.69.71,2.83,2.83,0,0,0-.25,1.37V25.36l1-.21V13.61H89.2v-1H86.66V10.22a1.75,1.75,0,0,1,.28-1.13c.09-.12.38-.31,1.25-.31a4.1,4.1,0,0,1,.5,0l.65.13.62.12h.33v-1Z" fill="#002e89" fill-rule="evenodd"/>
    </g>
    <g id="Path-8" data-name="Path">
      <rect id="Rectangle_7301" data-name="Rectangle 7301" width="1.04" height="12.08" transform="translate(90.13 13.13)" fill="#002e89"/>
    </g>
    <g id="Composite_Path" data-name="Composite Path">
      <path id="Path_18899" data-name="Path 18899" d="M103.53,16.34a6.66,6.66,0,0,0-1-2.12,5.07,5.07,0,0,0-1.71-1.48,4.9,4.9,0,0,0-2.36-.56A5.23,5.23,0,0,0,95,13.27a5,5,0,0,0-1.26,1.5v-7h-1V25.2h1V22.82a5.24,5.24,0,0,0,1.33,1.56,5.12,5.12,0,0,0,3.31,1.08,5,5,0,0,0,4-1.89,6,6,0,0,0,1.09-2.1,9.44,9.44,0,0,0,0-5.13Zm-1,4.66a6,6,0,0,1-.84,1.8,3.78,3.78,0,0,1-1.37,1.2,4,4,0,0,1-1.93.44A4.21,4.21,0,0,1,95,22.8a5.35,5.35,0,0,1-.9-1.8,7.28,7.28,0,0,1-.32-2.16,6.22,6.22,0,0,1,1.27-4.2,4.22,4.22,0,0,1,3.37-1.43,3.72,3.72,0,0,1,2,.49,4.2,4.2,0,0,1,1.36,1.3,5.86,5.86,0,0,1,.8,1.82,7.87,7.87,0,0,1,.26,2,8,8,0,0,1-.28,2.18Z" fill="#002e89" fill-rule="evenodd"/>
    </g>
    <g id="Composite_Path-2" data-name="Composite Path">
      <path id="Path_18900" data-name="Path 18900" d="M116,18.94a8.85,8.85,0,0,0-.26-2.5,6.61,6.61,0,0,0-1-2.15,5.1,5.1,0,0,0-1.78-1.53,5.5,5.5,0,0,0-2.59-.58,5.23,5.23,0,0,0-3.9,1.77A6.62,6.62,0,0,0,105.2,16a8.12,8.12,0,0,0-.46,2.79,10.71,10.71,0,0,0,.31,2.6,6.25,6.25,0,0,0,1,2.13A4.59,4.59,0,0,0,107.8,25a5.73,5.73,0,0,0,2.45.47h.09A5.6,5.6,0,0,0,114,24.22a5.11,5.11,0,0,0,1.78-3.48v-.32h-1v.24a4.23,4.23,0,0,1-1.46,2.84,4.73,4.73,0,0,1-3,.94,4.64,4.64,0,0,1-2.08-.42,3.68,3.68,0,0,1-1.36-1.14,5.16,5.16,0,0,1-.8-1.74,9.76,9.76,0,0,1-.27-1.93h10.15Zm-10.16-.77a6.79,6.79,0,0,1,.43-1.9,5.74,5.74,0,0,1,1-1.66,4.14,4.14,0,0,1,1.41-1,4.78,4.78,0,0,1,3.71.05,4.19,4.19,0,0,1,1.41,1.12,5.39,5.39,0,0,1,.86,1.67,6.89,6.89,0,0,1,.29,1.75Z" fill="#002e89" fill-rule="evenodd"/>
    </g>
    <g id="Path-9" data-name="Path">
      <path id="Path_18901" data-name="Path 18901" d="M122.69,12.18a5.85,5.85,0,0,0-1.81.26,4.68,4.68,0,0,0-1.5.75,4,4,0,0,0-1,1.13V13.13h-1V25.2h1V18a6.52,6.52,0,0,1,.27-1.85,4.38,4.38,0,0,1,.83-1.57,3.78,3.78,0,0,1,1.4-1,4,4,0,0,1,2-.32h.3V12.19Z" fill="#002e89" fill-rule="evenodd"/>
    </g>
    <path id="Path_18902" data-name="Path 18902" d="M26.08,34h.46v.79h0A1.54,1.54,0,0,1,28,33.85c1.27,0,1.87,1,1.87,2.19s-.6,2.19-1.87,2.19a1.48,1.48,0,0,1-1.44-.91h0v2.32h-.51Zm2,.3c-1.12,0-1.45.83-1.45,1.77S27,37.81,28,37.81s1.4-.91,1.4-1.81S29,34.27,28,34.27Z"/>
    <path id="Path_18903" data-name="Path 18903" d="M34.8,36a2,2,0,1,1-3.93,0,2,2,0,1,1,3.93,0Zm-3.42,0a1.48,1.48,0,1,0,2.91,0,1.48,1.48,0,1,0-2.91,0Z"/>
    <path id="Path_18904" data-name="Path 18904" d="M34.66,34h.54l1.06,3.55h0l1-3.55h.57l1,3.55h0L40,34h.54L39.2,38.14h-.55l-1-3.48h0l-1,3.48H36Z"/>
    <path id="Path_18905" data-name="Path 18905" d="M41.38,36.18a1.47,1.47,0,0,0,1.37,1.63,1.27,1.27,0,0,0,1.3-1.06h.51a1.7,1.7,0,0,1-1.81,1.48c-1.33,0-1.88-1-1.88-2.19a1.94,1.94,0,0,1,1.88-2.19c1.33,0,1.86,1.16,1.82,2.33Zm2.69-.43a1.4,1.4,0,0,0-1.32-1.48,1.48,1.48,0,0,0-1.37,1.48Z"/>
    <path id="Path_18906" data-name="Path 18906" d="M45.08,34h.46v1h0a1.54,1.54,0,0,1,1.57-1v.51a1.42,1.42,0,0,0-1.54,1.48V38.2h-.51Z"/>
    <path id="Path_18907" data-name="Path 18907" d="M47.38,36.18a1.47,1.47,0,0,0,1.37,1.63,1.27,1.27,0,0,0,1.3-1.06h.51a1.7,1.7,0,0,1-1.81,1.48c-1.33,0-1.88-1-1.88-2.19a1.94,1.94,0,0,1,1.88-2.19c1.33,0,1.86,1.16,1.82,2.33Zm2.69-.43a1.4,1.4,0,0,0-1.32-1.48,1.48,1.48,0,0,0-1.37,1.48Z"/>
    <path id="Path_18908" data-name="Path 18908" d="M54.73,38.11h-.46v-.79h0a1.65,1.65,0,0,1-1.48.91c-1.27,0-1.87-1-1.87-2.19s.6-2.19,1.87-2.19a1.48,1.48,0,0,1,1.44.91h0V32.38h.5Zm-2-.3c1.08,0,1.46-.91,1.46-1.77s-.38-1.77-1.46-1.77-1.36.91-1.36,1.77.43,1.77,1.4,1.77Z"/>
    <path id="Path_18909" data-name="Path 18909" d="M58.08,32.38h.51v2.38h0A1.48,1.48,0,0,1,60,33.85c1.27,0,1.87,1,1.87,2.19s-.6,2.19-1.87,2.19a1.54,1.54,0,0,1-1.48-.91h0v.79h-.46Zm2,1.89c-1.08,0-1.45.91-1.45,1.77S59,37.81,60,37.81s1.4-.91,1.4-1.81S61,34.27,60,34.27Z"/>
    <path id="Path_18910" data-name="Path 18910" d="M62.61,34h.54l1.37,3.53L65.8,34h.51L64.5,38.74c-.29.7-.46.9-1.09.9a1,1,0,0,1-.39,0v-.42a2.09,2.09,0,0,0,.35,0c.45,0,.55-.27.72-.65l.18-.48Z"/>
    <g id="Path-10" data-name="Path">
      <rect id="Rectangle_7302" data-name="Rectangle 7302" width="50.19" height="12.09" rx="1.51" transform="translate(68.4 27.04)" fill="#900"/>
    </g>
    <g id="Path-11" data-name="Path">
      <path id="Path_18911" data-name="Path 18911" d="M73,31.92a1.33,1.33,0,0,1,.46-.31,1.4,1.4,0,0,1,.58-.12h2.52v-.81H74.07a2.57,2.57,0,0,0-.9.16,2.09,2.09,0,0,0-.72.47A1.92,1.92,0,0,0,72,32a2.33,2.33,0,0,0-.17.93,2.5,2.5,0,0,0,.17.95,2.22,2.22,0,0,0,.47.75,2.16,2.16,0,0,0,.72.5,2.19,2.19,0,0,0,.9.18h2.52V34.5H74.07a1.4,1.4,0,0,1-.58-.12A1.33,1.33,0,0,1,73,34.1a1.44,1.44,0,0,1-.3-.49,1.75,1.75,0,0,1,0-1.22A1.35,1.35,0,0,1,73,31.92Z" fill="#fff" fill-rule="evenodd"/>
    </g>
    <g id="Path-12" data-name="Path">
      <path id="Path_18912" data-name="Path 18912" d="M81.81,30.68l-1.82,2.15-1.81-2.15h-1.1l2.48,2.89v1.77h.81V33.57l2.48-2.89Z" fill="#fff" fill-rule="evenodd"/>
    </g>
    <g id="Composite_Path-3" data-name="Composite Path">
      <path id="Path_18913" data-name="Path 18913" d="M88.32,33.26a1,1,0,0,0-.53-.37,1.42,1.42,0,0,0,.25-.12.76.76,0,0,0,.2-.2,1.13,1.13,0,0,0,.15-.29,1.48,1.48,0,0,0,0-.39,1.29,1.29,0,0,0-.11-.53A1,1,0,0,0,88,31a1.34,1.34,0,0,0-.48-.23,2.33,2.33,0,0,0-.62-.08H83.51v4.66H87a1.75,1.75,0,0,0,.62-.1,1.31,1.31,0,0,0,.47-.28,1.34,1.34,0,0,0,.31-.45,1.48,1.48,0,0,0,.1-.57,1.12,1.12,0,0,0-.18-.69Zm-.7.94a.55.55,0,0,1-.21.19,1,1,0,0,1-.32.11,2.5,2.5,0,0,1-.4,0H84.33v-3h2.69a.93.93,0,0,1,.32.09.48.48,0,0,1,.2.17.68.68,0,0,1-.1.75.87.87,0,0,1-.51.13h-2v.65H87a.79.79,0,0,1,.52.16.58.58,0,0,1,.18.45A.52.52,0,0,1,87.62,34.2Z" fill="#fff" fill-rule="evenodd"/>
    </g>
    <g id="Composite_Path-4" data-name="Composite Path">
      <path id="Path_18914" data-name="Path 18914" d="M90.23,34.53v-3h3.35v-.81H89.42v4.66h4.17v-.81Zm3.18-1.23v-.65H90.82v.65Z" fill="#fff" fill-rule="evenodd"/>
    </g>
    <g id="Path-13" data-name="Path">
      <path id="Path_18915" data-name="Path 18915" d="M98.52,33.91a1.39,1.39,0,0,0,.71-.57,1.73,1.73,0,0,0,.26-1,1.94,1.94,0,0,0-.12-.7,1.41,1.41,0,0,0-.87-.87,1.92,1.92,0,0,0-.71-.12H94.45v4.66h.8V31.49h2.54a1,1,0,0,1,.66.22.87.87,0,0,1,.23.67,1,1,0,0,1-.22.69.91.91,0,0,1-.67.23H95.85V34h1.74l1.18,1.31h1.16Z" fill="#fff" fill-rule="evenodd"/>
    </g>
    <g id="Path-14" data-name="Path">
      <path id="Path_18916" data-name="Path 18916" d="M104.52,30.68v3.39l-3.28-3.23a.63.63,0,0,0-.18-.12.33.33,0,0,0-.17,0,.35.35,0,0,0-.3.13.5.5,0,0,0-.12.35v4.18h.78V32l3.27,3.19a.51.51,0,0,0,.38.17.38.38,0,0,0,.29-.12.54.54,0,0,0,.11-.35V30.68Z" fill="#fff" fill-rule="evenodd"/>
    </g>
    <g id="Composite_Path-5" data-name="Composite Path">
      <path id="Path_18917" data-name="Path 18917" d="M107.05,34.53v-3h3.36v-.81h-4.16v4.66h4.16v-.81Zm3.18-1.23v-.65h-2.58v.65Z" fill="#fff" fill-rule="evenodd"/>
    </g>
    <g id="Path-15" data-name="Path">
      <path id="Path_18918" data-name="Path 18918" d="M111,30.68v.81h1.77v3.85h.81V31.49h1.77v-.81Z" fill="#fff" fill-rule="evenodd"/>
    </g>
  </g>
</svg>